<?xml version="1.0" encoding="UTF-8"?>
<svg version="1.1" xmlns="http://www.w3.org/2000/svg" width="1024" height="1024">
<path d="M0 0 C0.33 0.66 0.66 1.32 1 2 C1.95769287 1.83773926 2.91538574 1.67547852 3.90209961 1.50830078 C8.46140829 0.86271605 12.9684402 0.85700467 17.56640625 0.8671875 C18.54414505 0.86568695 19.52188385 0.8641864 20.5292511 0.86264038 C23.87370517 0.86022966 27.2180559 0.86671893 30.5625 0.875 C31.7391925 0.87721558 32.91588501 0.87943115 34.12823486 0.88171387 C41.82098793 0.8981484 49.51360579 0.92886611 57.20628357 0.96554565 C62.82030983 0.99177154 68.43433273 1.01137697 74.0483942 1.02834892 C85.23055174 1.06241427 96.41246537 1.11373124 107.5944376 1.18711662 C113.26773045 1.22410862 118.94089203 1.255112 124.61428833 1.27044678 C172.37450737 1.41144123 215.11326892 6.12292919 257 31 C257.92039062 31.53238281 258.84078125 32.06476563 259.7890625 32.61328125 C261.82158172 33.88809454 263.53377601 35.2103243 265.3125 36.8125 C272.04584386 42.9137738 272.04584386 42.9137738 280 47 C281.47265625 48.49609375 281.47265625 48.49609375 283.0625 50.4375 C285.8273254 53.71346959 288.72381913 56.71537312 291.8125 59.6875 C302.61425648 70.40754879 311.73700288 83.55035833 319.1640625 96.8203125 C320.80300698 99.97553113 320.80300698 99.97553113 323 102 C323.67202678 103.26647113 324.29352423 104.56016476 324.8828125 105.8671875 C325.24141357 106.65971924 325.60001465 107.45225098 325.96948242 108.26879883 C326.35080322 109.12884521 326.73212402 109.9888916 327.125 110.875 C327.52243408 111.77049561 327.91986816 112.66599121 328.3293457 113.58862305 C329.56270705 116.38824306 330.78335506 119.19307921 332 122 C332.36496582 122.83515137 332.72993164 123.67030273 333.10595703 124.53076172 C339.65224502 139.64574349 345.02931405 155.57761711 347 172 C341.375 172.25 341.375 172.25 338 170 C338 169.34 338 168.68 338 168 C337.42320496 167.74786743 336.84640991 167.49573486 336.25213623 167.23596191 C333.7159125 165.8440941 332.01316506 164.26719104 329.96582031 162.22460938 C329.18531311 161.45040649 328.40480591 160.67620361 327.60064697 159.87854004 C326.76821472 159.04205933 325.93578247 158.20557861 325.078125 157.34375 C324.21813904 156.48567749 323.35815308 155.62760498 322.47210693 154.74353027 C320.65749174 152.93027533 318.84539684 151.11449519 317.03564453 149.29638672 C314.25384379 146.50385862 311.46151855 143.72217542 308.66796875 140.94140625 C306.90821228 139.18032867 305.14907605 137.41863106 303.390625 135.65625 C302.55009583 134.81976929 301.70956665 133.98328857 300.84356689 133.12145996 C299.69171906 131.96015564 299.69171906 131.96015564 298.51660156 130.77539062 C297.83583557 130.09303345 297.15506958 129.41067627 296.45367432 128.7076416 C295 127 295 127 295 125 C294.1646875 124.690625 294.1646875 124.690625 293.3125 124.375 C291.05303189 123.03153247 290.0001344 121.94842298 288.375 119.9375 C286.32880603 116.99175287 286.32880603 116.99175287 284 116 C284 115.34 284 114.68 284 114 C283.34 114 282.68 114 282 114 C280.66796875 112.64453125 280.66796875 112.64453125 279.1875 110.8125 C276.59985732 107.69613225 273.90103405 104.83356814 271 102 C269.49862826 100.501373 267.99876084 99.00123813 266.5 97.5 C265.7678125 96.7678125 265.035625 96.035625 264.28125 95.28125 C262.70832471 93.70832471 261.14093533 92.12985062 259.578125 90.546875 C256.86726721 87.86887609 254.07557647 85.30647395 251.25 82.75 C247.49133908 79.33366635 243.81800727 75.86756293 240.25 72.25 C229.55691826 61.46178408 217.45701726 51.38774546 204.45703125 43.5078125 C202.15809509 42.09701861 200.0008831 40.57431703 197.8125 39 C182.73468068 28.93017067 161.30586147 21.24049373 143.15234375 24.7421875 C140.00604214 25.66048235 140.00604214 25.66048235 138.84153557 27.67681122 C135.63323382 36.53382321 136.85385103 47.80657581 136.87060547 57.13867188 C136.86885315 58.37024521 136.86710083 59.60181854 136.86529541 60.87071228 C136.86168244 64.20859022 136.86248329 67.54640503 136.8656745 70.88427925 C136.86824399 74.42427772 136.86584717 77.96427387 136.86428833 81.50427246 C136.86247603 87.46200022 136.86484419 93.41971554 136.86962891 99.37744141 C136.87502956 106.17882473 136.87333587 112.98017787 136.8678025 119.78156042 C136.86319584 125.68884706 136.8626581 131.59612485 136.86524117 137.50341272 C136.86676842 141.00072881 136.86710026 144.49803098 136.86370468 147.99534607 C136.85337724 163.54499048 137.08210809 179.05490692 137.6566515 194.59428978 C138.00416726 204.24582807 138.06097615 213.85372338 137.87890625 223.5078125 C137.85418221 225.14076083 137.83027217 226.77372165 137.80708313 228.4066925 C137.75726146 231.85825579 137.70393545 235.30973621 137.64764404 238.76119995 C137.49587337 248.16730151 137.37798566 257.57387157 137.26171875 266.98046875 C137.24348179 268.44354682 137.24348179 268.44354682 137.2248764 269.93618202 C136.94055619 293.10293999 136.8715078 316.26916558 136.875 339.4375 C136.87506672 340.41222008 136.87513344 341.38694016 136.87520218 342.3911972 C136.88077656 371.60286426 137.06099362 400.80089739 138 430 C167.72544175 430.3911512 167.72544175 430.3911512 193.17578125 416.8125 C195 415 195 415 197 415 C197.26941406 414.40703125 197.53882813 413.8140625 197.81640625 413.203125 C198.99989257 411.00019996 200.21697529 409.55045129 201.9375 407.75 C205.22612453 404.06791739 208.07013907 400.15710502 210.84375 396.08203125 C211.31501816 395.39291153 211.78628632 394.70379181 212.27183533 393.99378967 C218.81604773 384.3844702 225.18057892 374.6549199 231.5625 364.9375 C234.06310622 361.13365672 236.56463566 357.3304213 239.06640625 353.52734375 C239.66674179 352.61438034 240.26707733 351.70141693 240.88560486 350.76078796 C244.81105919 344.79482602 248.76054182 338.84552772 252.72845459 332.90774536 C255.96134514 328.06708867 259.15010018 323.19941644 262.3125 318.3125 C263.42694269 316.59235679 264.54153009 314.87230732 265.65625 313.15234375 C266.21183594 312.29495605 266.76742188 311.43756836 267.33984375 310.55419922 C268.9381515 308.09515574 270.54543726 305.64227189 272.15625 303.19140625 C289.92834007 276.10973197 306.93459545 248.48235638 321.4375 219.5 C321.93795334 218.50208435 321.93795334 218.50208435 322.44851685 217.48400879 C323.38683771 215.60672515 324.31818734 213.72619974 325.24609375 211.84375 C325.77904053 210.76287109 326.3119873 209.68199219 326.86108398 208.56835938 C328.13512413 206.16354196 328.13512413 206.16354196 328 204 C324.39616077 204.56866665 321.21392395 205.64484148 317.84008789 207.01855469 C281.38229793 221.74842584 234.23416168 221.26377289 198 206 C183.71249501 199.55443949 168.02665487 190.92048937 161.5625 175.875 C160.23184118 172.10768022 159.27097756 169.00962344 160 165 C162.70163791 159.59672418 165.68434857 157.47452739 171 155 C175.5862416 153.97070146 179.95860323 153.91041376 184.625 154.1875 C185.71349243 154.24925415 185.71349243 154.24925415 186.82397461 154.31225586 C193.6923831 154.80186913 200.34018528 156.10212875 207.04736328 157.62768555 C212.16364837 158.76562332 216.75569425 159.18622392 222 159 C222 159.66 222 160.32 222 161 C225.58103974 162.0083407 229.16517425 163.00521086 232.75 164 C233.76578125 164.28617188 234.7815625 164.57234375 235.828125 164.8671875 C236.8078125 165.13789063 237.7875 165.40859375 238.796875 165.6875 C239.69760742 165.93886719 240.59833984 166.19023437 241.52636719 166.44921875 C244.22836257 167.14489231 244.22836257 167.14489231 248 167 C248 167.66 248 168.32 248 169 C249.07668945 169.10505859 250.15337891 169.21011719 251.26269531 169.31835938 C256.89381187 170.02637699 262.31185144 171.48007936 267.796875 172.90625 C268.90806702 173.19101196 270.01925903 173.47577393 271.16412354 173.76916504 C274.69395096 174.67484077 278.22198519 175.58729173 281.75 176.5 C284.13660218 177.11373472 286.52331983 177.72702064 288.91015625 178.33984375 C294.15340511 179.68670797 299.39552011 181.03788843 304.63665771 182.39294434 C306.75571904 182.93725321 308.87741884 183.46964008 311 184 C312.77275085 184.46772569 314.54482676 184.93801324 316.31640625 185.41015625 C317.83331055 185.81137695 317.83331055 185.81137695 319.38085938 186.22070312 C321.50657141 186.78312295 323.63157169 187.34823965 325.75585938 187.91601562 C326.76583984 188.18220703 327.77582031 188.44839844 328.81640625 188.72265625 C329.73881104 188.96765869 330.66121582 189.21266113 331.61157227 189.46508789 C334.07998093 190.10927303 334.07998093 190.10927303 337 190 C337.66 188.68 338.32 187.36 339 186 C337.02 186.99 337.02 186.99 335 188 C334.67 187.34 334.34 186.68 334 186 C332.14809668 185.40158395 332.14809668 185.40158395 330 185 C301.91378973 177.24305304 273.89151852 168.70236004 246.4375 158.9375 C245.19734131 158.49696289 243.95718262 158.05642578 242.67944336 157.60253906 C236.92867266 155.52536984 231.30176753 153.35270636 225.78930664 150.70141602 C223.85480174 149.81751776 223.85480174 149.81751776 221 150 C221 149.34 221 148.68 221 148 C220.32839844 147.75121094 219.65679687 147.50242187 218.96484375 147.24609375 C201.57316293 139.93654674 187.53009024 127.83776106 174 115 C173.28328125 114.35933594 172.5665625 113.71867187 171.828125 113.05859375 C163.55928425 105.40164722 156.17969242 94.50399944 152 84 C152 83.01 152 82.02 152 81 C151.34 80.67 150.68 80.34 150 80 C147.67535858 70.71434901 146.80364554 61.47946479 151.75 53 C156.64652541 48.64753296 161.77964471 48.70379261 168 49 C169.66804677 49.32635698 171.33524314 49.65725594 173 50 C173.66 49.67 174.32 49.34 175 49 C175.33 49.66 175.66 50.32 176 51 C177.72128889 51.9893613 177.72128889 51.9893613 179.83203125 52.8828125 C180.62456299 53.24109131 181.41709473 53.59937012 182.23364258 53.96850586 C183.08466553 54.35014893 183.93568848 54.73179199 184.8125 55.125 C192.74512369 58.78728813 199.91254052 62.86207206 207 68 C208.12646205 68.79199153 209.25412159 69.58228188 210.3828125 70.37109375 C217.85686908 75.6189455 225.14780318 81.0851978 232.34375 86.70703125 C234.048816 88.03810872 235.75863179 89.36292183 237.46875 90.6875 C244.03341798 95.79133403 250.47594555 100.9995022 256.73828125 106.47241211 C259.37675863 108.75182935 261.84289855 110.53320508 265 112 C266.1502545 113.11642349 267.29502004 114.23925864 268.40625 115.39453125 C274.51476208 121.54795886 281.23103703 127.04582225 287.9609375 132.49609375 C293.4350981 137.00629548 298.75426306 141.6965829 304.10351562 146.35351562 C307.64960396 149.43214844 311.21764397 152.48511283 314.78686523 155.53686523 C317.76742309 158.0854215 320.74244722 160.63989866 323.70703125 163.20703125 C329.6626226 168.35575125 335.60498673 173.39559045 342 178 C342.66 177.34 343.32 176.68 344 176 C344.99 176.33 345.98 176.66 347 177 C347.75023437 176.17757812 348.50046875 175.35515625 349.2734375 174.5078125 C366.48468313 155.69947202 366.48468313 155.69947202 372.62890625 151.39453125 C381.12306429 145.64857346 381.12306429 145.64857346 385 136.4375 C385.22623047 134.80941406 385.22623047 134.80941406 385.45703125 133.1484375 C386.6289867 126.35278218 390.51638212 120.86691454 395.8125 116.5625 C403.90537942 111.16214757 411.42746176 110.56267592 421 111 C421 111.66 421 112.32 421 113 C422.2375 113.0309375 422.2375 113.0309375 423.5 113.0625 C429.32264944 114.62213824 433.25055415 118.39737612 436.5859375 123.359375 C440.96359306 131.10251143 442.68936739 138.71555332 440.31640625 147.54296875 C436.79634614 156.02908876 431.82547171 161.09949106 423.58984375 165.0625 C420.99947631 166.00018957 418.97773098 166.16530372 416.25 166.3125 C413.94933578 166.62108588 413.94933578 166.62108588 412 168 C409.69456108 172.34267083 408.33624891 176.90189831 406.83935547 181.57177734 C405.34596946 185.89208485 403.45546187 190.03017484 401.5625 194.1875 C400.9902771 195.45134521 400.9902771 195.45134521 400.40649414 196.74072266 C397.23241158 203.6636632 393.75883338 210.37671803 390 217 C408.28377078 226.69260138 431.6691778 227.57340988 452 228 C453.22267578 228.02723145 454.44535156 228.05446289 455.70507812 228.08251953 C487.35788736 228.71890665 517.28201688 227.90928832 545.35009766 211.92822266 C547.20256943 210.88603596 549.08440248 209.92086565 551 209 C551 208.34 551 207.68 551 207 C552.10836035 206.01848198 553.26445604 205.09072098 554.4375 204.1875 C572.36615255 188.86088198 578.19861031 164.51737108 580 142 C580.24981528 138.29440663 580.21461834 134.70787437 580 131 C579.95891113 130.27361328 579.91782227 129.54722656 579.87548828 128.79882812 C578.87697936 112.65679887 576.41637508 96.55806961 569 82 C568.34 82 567.68 82 567 82 C566 79 566 79 566 76 C563.47209851 71.36569378 563.47209851 71.36569378 559 69 C559 68.01 559 67.02 559 66 C549.17927889 51.22441356 530.97448 42.90531205 514.34765625 38.76171875 C500.30790298 36.03996257 485.72100174 36.91501393 471.5 37 C466.98958577 37.02662133 462.47921318 37.04656616 457.96875 37.0625 C456.94164917 37.07079834 455.91454834 37.07909668 454.85632324 37.08764648 C453.89762329 37.09094971 452.93892334 37.09425293 451.95117188 37.09765625 C451.11324097 37.10289307 450.27531006 37.10812988 449.4119873 37.11352539 C447 37 447 37 442 36 C442 56.46 442 76.92 442 98 C437.71 96.35 433.42 94.7 429 93 C418.48341913 89.0392098 406.13303888 88.01983111 395.3671875 91.8984375 C380.46296918 98.83406385 373.17383471 109.25202886 367 124 C366.39185035 125.88168655 365.81971434 127.77613298 365.3125 129.6875 C364.16369064 134.01540446 362.52885413 136.11275571 359 139 C358.41476562 139.53753906 357.82953125 140.07507813 357.2265625 140.62890625 C352.41937355 145 352.41937355 145 349 145 C349.00444122 144.00822754 349.00888245 143.01645508 349.01345825 141.99462891 C349.05425908 132.58129534 349.08410541 123.16798005 349.10362434 113.75457764 C349.113997 108.91675082 349.1280349 104.07899621 349.15087891 99.24121094 C349.17284257 94.55978704 349.18461742 89.87843196 349.18975449 85.19696045 C349.19340853 83.42387816 349.20054181 81.65079902 349.21146011 79.87774658 C349.32673043 60.35635445 348.84905346 40.98044411 336.35546875 24.890625 C335 23 335 23 335 21 C334.01 20.67 333.02 20.34 332 20 C332 19.34 332 18.68 332 18 C331.01 18.33 330.02 18.66 329 19 C328.41605469 17.87464844 328.41605469 17.87464844 327.8203125 16.7265625 C323.04791633 9.57820944 313.99309463 6.22758375 306 4 C306 3.34 306 2.68 306 2 C335.78385684 1.93132422 365.567711 1.8783489 395.35163015 1.84680401 C398.88074185 1.84305261 402.40985338 1.83916958 405.93896484 1.83520508 C406.99268522 1.83402468 406.99268522 1.83402468 408.06769288 1.83282044 C419.39055806 1.81982362 430.71337681 1.79620195 442.03621459 1.76854161 C453.68449541 1.740327 465.33275217 1.72379013 476.98106575 1.71773452 C483.511105 1.71384705 490.04103948 1.70480656 496.57104492 1.68280983 C502.73682621 1.66221135 508.90246111 1.65621263 515.06827354 1.66067696 C517.31255582 1.65986207 519.5568438 1.65403735 521.80109596 1.64238358 C541.15789509 1.54693203 560.65384627 2.73493007 579.4375 7.75 C580.42427734 8.00676514 581.41105469 8.26353027 582.42773438 8.52807617 C601.87967797 13.78130168 619.91330831 22.5362706 635 36 C635.91265625 36.76957031 636.8253125 37.53914063 637.765625 38.33203125 C660.45073405 57.94387832 674.5529334 88.25103762 677 118 C677.78489833 133.172426 677.76296607 148.22235996 674 163 C673.83902832 163.64227539 673.67805664 164.28455078 673.51220703 164.94628906 C668.76348474 183.32991137 660.18024731 199.499518 648 214 C647.52240234 214.5686377 647.04480469 215.13727539 646.55273438 215.72314453 C629.56419371 235.64297213 607.66669346 247.40755676 583 255 C591.4670223 268.79985226 599.96544741 282.57809342 608.55834961 296.30004883 C615.27538208 307.02870386 621.93035754 317.79543066 628.58398438 328.56347656 C634.99161573 338.93154428 641.4175867 349.28784707 647.875 359.625 C648.48134277 360.59606689 649.08768555 361.56713379 649.71240234 362.56762695 C651.47132675 365.38069961 653.23486963 368.19081794 655 371 C655.63711914 372.01803711 656.27423828 373.03607422 656.93066406 374.08496094 C657.55424805 375.0752832 658.17783203 376.06560547 658.8203125 377.0859375 C659.38250488 377.98103027 659.94469727 378.87612305 660.52392578 379.79833984 C661.95012371 382.07916401 661.95012371 382.07916401 664 384 C664.66666667 385.33333333 665.33333333 386.66666667 666 388 C666.66 388.66 667.32 389.32 668 390 C669.06223139 391.6536359 670.10052102 393.32271349 671.125 395 C675.71098412 402.28587456 680.83902543 408.97789986 687 415 C687.763125 415.78375 688.52625 416.5675 689.3125 417.375 C706.80138755 434.45716924 729.86410993 445.60713415 754.44921875 446.82421875 C757.03848439 447.00265206 759.46857276 447.43898099 762 448 C761.01 448.495 761.01 448.495 760 449 C760.01160156 449.99902344 760.02320313 450.99804688 760.03515625 452.02734375 C760.04869141 453.96287109 760.04869141 453.96287109 760.0625 455.9375 C760.07410156 457.22527344 760.08570313 458.51304687 760.09765625 459.83984375 C760 463 760 463 759 464 C756.61184099 464.10572456 754.25246938 464.14678216 751.86352539 464.14526367 C751.11510376 464.14862228 750.36668213 464.1519809 749.59558105 464.15544128 C747.0962562 464.16500851 744.59699835 464.16689955 742.09765625 464.16796875 C740.34533156 464.17118556 738.59300713 464.17454995 736.84068298 464.17805481 C733.14239891 464.18406603 729.44413823 464.18589349 725.74584961 464.18530273 C722.00165875 464.18522248 718.25759285 464.19199352 714.51342773 464.20581055 C678.90199013 464.33512229 678.90199013 464.33512229 663.0546875 463.15234375 C662.06787491 463.07984909 661.08106232 463.00735443 660.06434631 462.93266296 C651.97485416 462.22047449 644.29353757 460.37399724 636.53515625 458.0234375 C633.13310824 456.86095808 633.13310824 456.86095808 630 457 C630 456.34 630 455.68 630 455 C629.12601563 454.73058594 628.25203125 454.46117187 627.3515625 454.18359375 C599.40492774 444.31432763 585.42119033 415.71152848 572.41015625 391.3515625 C569.6655955 386.22079028 566.86896067 381.12463563 564 376.0625 C563.63898193 375.42489746 563.27796387 374.78729492 562.90600586 374.13037109 C562.39179077 373.22279053 562.39179077 373.22279053 561.8671875 372.296875 C558.2728456 365.9503801 554.80076597 359.54794924 551.43359375 353.078125 C550.47656801 351.23958046 549.51953662 349.40103887 548.5625 347.5625 C547.84960815 346.19158203 547.84960815 346.19158203 547.12231445 344.79296875 C543.97386098 338.77012295 540.68807786 332.88282534 537.14453125 327.08203125 C536 325 536 325 536 323 C535.34 322.67 534.68 322.34 534 322 C532.84768464 319.87193372 531.78715247 317.74648826 530.75 315.5625 C527.07652777 308.01234963 523.13476412 300.62632559 519.125 293.25 C514.21733365 284.20883438 509.46221994 275.11431133 504.93212891 265.87792969 C503.32904389 262.19580342 503.32904389 262.19580342 501 259 C499.15881971 258.90618698 497.31402359 258.88256046 495.47045898 258.88647461 C493.69873573 258.88658791 493.69873573 258.88658791 491.89122009 258.88670349 C489.96313255 258.89444542 489.96313255 258.89444542 487.99609375 258.90234375 C486.68794205 258.9037587 485.37979034 258.90517365 484.03199768 258.90663147 C480.54837141 258.9104559 477.06478661 258.92028554 473.58117676 258.93133545 C470.02873292 258.94155118 466.47628241 258.94612944 462.92382812 258.95117188 C455.94920168 258.96190788 448.97460283 258.9789834 442 259 C441.95311942 276.73389401 441.91793291 294.46777177 441.89637566 312.20171452 C441.88609679 320.43731327 441.87210188 328.67287335 441.84912109 336.90844727 C441.82908277 344.09300672 441.81625899 351.27753814 441.81182301 358.46212476 C441.80923317 362.26045578 441.80321806 366.05870666 441.78853989 369.8570118 C441.77479022 373.44469905 441.77081176 377.03227447 441.77378464 380.61998558 C441.77298683 382.53868424 441.76231743 384.45737121 441.75115967 386.3760376 C441.79105079 403.52286555 443.71959784 419.75148822 455.7421875 432.90625 C463.61210806 440.35165202 473.31449468 444.62885109 484 446 C484.22126178 448.45779976 484.42750395 450.91527648 484.625 453.375 C484.72167969 454.42300781 484.72167969 454.42300781 484.8203125 455.4921875 C484.96119739 457.32369111 484.98761659 459.16312748 485 461 C483 463 483 463 480.3332119 463.23047829 C478.62144233 463.21665139 478.62144233 463.21665139 476.87509155 463.20254517 C475.56814835 463.19688034 474.26120514 463.19121552 472.91465759 463.18537903 C471.45791414 463.16885621 470.00117286 463.15214135 468.54443359 463.13525391 C467.01707007 463.12483243 465.48970028 463.11529634 463.96232605 463.10658264 C459.80751237 463.08035653 455.65289516 463.04169163 451.4982028 463.00085878 C447.15938671 462.96031008 442.82049494 462.93110997 438.4815979 462.90072632 C430.26154071 462.84142949 422.04160342 462.7718684 413.82165968 462.69865549 C404.46513893 462.61581647 395.10854219 462.54436537 385.75192142 462.47388959 C366.50116765 462.32863326 347.2505624 462.16861091 328 462 C328 456.72 328 451.44 328 446 C329.7325 445.62875 331.465 445.2575 333.25 444.875 C345.09707584 441.87131921 355.24172232 436.78530701 361.75 426.13671875 C367.69404311 414.89161796 368.29178963 404.59123476 368.24291992 392.13891602 C368.24399435 390.54479393 368.24593541 388.95067222 368.24867249 387.35655212 C368.25349562 383.05126392 368.2458989 378.74608029 368.23571944 374.44080472 C368.22690596 369.93074754 368.22869697 365.42069331 368.2290802 360.91062927 C368.22814561 353.34608214 368.21948584 345.78157529 368.20581055 338.21704102 C368.19004744 329.46513312 368.18481392 320.71326918 368.1855461 311.96134812 C368.18615561 303.53849016 368.18105974 295.11564654 368.17275429 286.69279289 C368.16921955 283.10789821 368.16739079 279.5230086 368.16686058 275.93811226 C368.16585871 271.72492798 368.15977495 267.51178082 368.14969444 263.29860878 C368.14676585 261.74977597 368.1455448 260.20093889 368.14612198 258.65210342 C368.14661029 256.54472685 368.14098083 254.43745536 368.13371277 252.33009338 C368.13203692 251.14898263 368.13036108 249.96787188 368.12863445 248.75096989 C368.18786195 246.03826722 368.18786195 246.03826722 367 244 C367.66 244 368.32 244 369 244 C368.67 243.34 368.34 242.68 368 242 C360.60072699 251.02170496 353.31225772 260.11545838 346.17236328 269.34399414 C342.40911654 274.20332708 338.60211708 279.02336463 334.75 283.8125 C329.81972668 289.94642331 324.99411075 296.15295732 320.21777344 302.40722656 C318.15155311 305.10971683 316.07520861 307.80440984 314 310.5 C313.16661949 311.58329704 312.33328612 312.66663035 311.5 313.75 C306.5 320.25 306.5 320.25 305.25048828 321.87426758 C304.41540154 322.95994556 303.58044102 324.04572065 302.74560547 325.1315918 C300.69010638 327.80486165 298.63211885 330.47611627 296.5703125 333.14453125 C291.61756599 339.55747378 286.72838713 346.01442807 281.87670898 352.50415039 C277.67955919 358.11113066 273.4380774 363.68345121 269.1875 369.25 C263.92554123 376.14247774 258.69474889 383.05673447 253.5 390 C251.00137732 393.33436775 248.50101175 396.66742396 246 400 C245.3184082 400.90911133 244.63681641 401.81822266 243.93457031 402.75488281 C228.73025689 423.00155052 228.73025689 423.00155052 221 431 C220.11441406 431.99580078 220.11441406 431.99580078 219.2109375 433.01171875 C201.56966266 452.11684406 174.33164519 461.20744275 148.90844727 462.31201172 C146.44047174 462.39892829 143.97226289 462.479367 141.50390625 462.5546875 C140.83675661 462.57562344 140.16960697 462.59655937 139.48224068 462.61812973 C122.16610786 463.15073445 104.84868763 463.15560446 87.52593994 463.12857056 C84.90295299 463.12495235 82.27997158 463.12337126 79.65698242 463.12231445 C52.42835099 463.10868777 25.21722611 462.84603811 -2 462 C-2.95611549 458.49314042 -3.10211174 455.39428019 -3.0625 451.75 C-3.05347656 450.67234375 -3.04445313 449.5946875 -3.03515625 448.484375 C-3.02355469 447.66453125 -3.01195313 446.8446875 -3 446 C-1.9275 445.62875 -0.855 445.2575 0.25 444.875 C13.90654137 439.69326267 24.58585619 433.54987879 31 420 C33.54443266 413.75818864 34.23010288 407.49186858 34.5703125 400.80395508 C34.6117186 400.01864064 34.65312469 399.23332621 34.69578552 398.42421436 C35.07962882 390.48830165 35.1160524 382.56273032 35.07516479 374.61920738 C35.06209946 372.05820774 35.05581298 369.49726133 35.05102539 366.93623352 C35.03976661 361.5199644 35.02046136 356.10374111 35 350.6875 C34.97630369 344.35696048 34.95600769 338.02644481 34.94406128 331.69587135 C34.93761201 329.1804073 34.92511975 326.66502065 34.91235352 324.14958191 C34.90872208 322.61103379 34.90537021 321.07248498 34.90234375 319.53393555 C34.89717743 318.84148239 34.89201111 318.14902924 34.88668823 317.43559265 C34.88629426 313.82767349 35.14595175 310.50877998 36 307 C35.34 307 34.68 307 34 307 C34.16371094 305.86264404 34.32742187 304.72528809 34.49609375 303.5534668 C35.23087165 296.89276024 35.11109235 290.21803402 35.07516479 283.52732277 C35.06226963 281.10118866 35.05585285 278.67510994 35.05102539 276.24894714 C35.03966664 271.10343968 35.02041142 265.95797848 35 260.8125 C34.97634145 254.83509834 34.95598234 248.85772283 34.94406128 242.88028526 C34.937609 240.49728729 34.92510588 238.11437088 34.91235352 235.73139954 C34.90871963 234.26470001 34.90536807 232.79799974 34.90234375 231.33129883 C34.89710693 230.05716629 34.89187012 228.78303375 34.88647461 227.47029114 C34.99287697 224.21773982 35.38005726 221.19047952 36 218 C35.34 217.67 34.68 217.34 34 217 C34.33 216.67 34.66 216.34 35 216 C35.08788845 214.52740768 35.106937 213.05062297 35.09765625 211.57543945 C35.09435303 210.63388504 35.0910498 209.69233063 35.08764648 208.72224426 C35.07934814 207.69628647 35.0710498 206.67032867 35.0625 205.61328125 C35.05871338 204.56351608 35.05492676 203.51375092 35.05102539 202.43217468 C35.03462828 197.92324133 35.0066327 193.41439707 34.97949219 188.90551758 C34.96137645 185.62060975 34.94929538 182.33571689 34.9375 179.05078125 C34.92920166 178.03494461 34.92090332 177.01910797 34.91235352 175.9724884 C34.89587002 171.19536547 34.99101618 166.69683954 36 162 C35.34 161.67 34.68 161.34 34 161 C34.33 160.34 34.66 159.68 35 159 C35.09649939 157.0018949 35.12980872 155.0004282 35.125 153 C35.12757813 151.9275 35.13015625 150.855 35.1328125 149.75 C35.1872341 147.03817948 35.1872341 147.03817948 34 145 C34.31790392 142.99748952 34.65409784 140.99786456 35 139 C35.0932646 136.72763458 35.13789158 134.45297753 35.14526367 132.17871094 C35.14862228 131.52399811 35.1519809 130.86928528 35.15544128 130.19473267 C35.16489532 128.04126044 35.16689267 125.88786667 35.16796875 123.734375 C35.17118895 122.21665415 35.17455357 120.6989336 35.17805481 119.18121338 C35.184035 115.99710372 35.18589623 112.81302113 35.18530273 109.62890625 C35.18522194 106.39772893 35.19208791 103.16669479 35.20581055 99.93554688 C37.09190213 63.79363591 37.09190213 63.79363591 22.125 32.4375 C14.9654264 26.00625154 7.28512297 23.13471052 -2 21 C-3.00926479 16.84373632 -3.10239579 12.95634906 -3.0625 8.6875 C-3.05347656 7.43324219 -3.04445313 6.17898437 -3.03515625 4.88671875 C-3.01775391 3.45779297 -3.01775391 3.45779297 -3 2 C-2.01 2 -1.02 2 0 2 C0 1.34 0 0.68 0 0 Z M217 160 C221 161 221 161 221 161 Z M344 178 C344 178.99 344 179.98 344 181 C344.66 180.01 345.32 179.02 346 178 C345.34 178 344.68 178 344 178 Z M341 183 C341 186 341 186 341 186 Z M330 200 C329.67 200.66 329.34 201.32 329 202 C329.66 202 330.32 202 331 202 C330.67 201.34 330.34 200.68 330 200 Z " fill="#010101" transform="translate(130,233)"/>
<path d="M0 0 C0.33 0 0.66 0 1 0 C1 1.65 1 3.3 1 5 C0.34 4.67 -0.32 4.34 -1 4 C-0.67 2.68 -0.34 1.36 0 0 Z " fill="#000000" transform="translate(497,600)"/>
<path d="M0 0 C0.33 0 0.66 0 1 0 C1 1.98 1 3.96 1 6 C0.67 6 0.34 6 0 6 C0 4.02 0 2.04 0 0 Z " fill="#000000" transform="translate(497,616)"/>
<path d="M0 0 C0.33 0 0.66 0 1 0 C1 1.98 1 3.96 1 6 C0.67 6 0.34 6 0 6 C0 4.02 0 2.04 0 0 Z " fill="#000000" transform="translate(497,544)"/>
<path d="M0 0 C0.33 0 0.66 0 1 0 C1 1.98 1 3.96 1 6 C0.67 6 0.34 6 0 6 C0 4.02 0 2.04 0 0 Z " fill="#000000" transform="translate(497,504)"/>
<path d="M0 0 C0.33 0 0.66 0 1 0 C1 1.65 1 3.3 1 5 C0.67 5 0.34 5 0 5 C0 3.35 0 1.7 0 0 Z " fill="#000000" transform="translate(497,608)"/>
<path d="M0 0 C0.33 0 0.66 0 1 0 C1 1.65 1 3.3 1 5 C0.67 5 0.34 5 0 5 C0 3.35 0 1.7 0 0 Z " fill="#000000" transform="translate(497,576)"/>
<path d="M0 0 C0.33 0 0.66 0 1 0 C1 1.65 1 3.3 1 5 C0.67 5 0.34 5 0 5 C0 3.35 0 1.7 0 0 Z " fill="#000000" transform="translate(497,536)"/>
<path d="M0 0 C0.33 0 0.66 0 1 0 C1 1.65 1 3.3 1 5 C0.67 5 0.34 5 0 5 C0 3.35 0 1.7 0 0 Z " fill="#000000" transform="translate(497,513)"/>
<path d="M0 0 C1.65 0 3.3 0 5 0 C5 0.33 5 0.66 5 1 C3.35 1 1.7 1 0 1 C0 0.67 0 0.34 0 0 Z " fill="#000000" transform="translate(187,233)"/>
<path d="M0 0 C1 4 1 4 1 4 Z " fill="#000000" transform="translate(497,592)"/>
<path d="M0 0 C0 3 0 3 0 3 Z " fill="#000000" transform="translate(497,560)"/>
<path d="M0 0 C0.99 0 1.98 0 3 0 C2.67 0.66 2.34 1.32 2 2 C1.34 1.34 0.68 0.68 0 0 Z " fill="#000000" transform="translate(437,412)"/>
<path d="M0 0 C4 1 4 1 4 1 Z " fill="#000000" transform="translate(306,385)"/>
<path d="M0 0 C0 3 0 3 0 3 Z " fill="#000000" transform="translate(477,285)"/>
<path d="M0 0 C4 1 4 1 4 1 Z " fill="#000000" transform="translate(602,233)"/>
<path d="M0 0 C4 1 4 1 4 1 Z " fill="#000000" transform="translate(559,233)"/>
<path d="M0 0 C4 1 4 1 4 1 Z " fill="#000000" transform="translate(522,233)"/>
<path d="" fill="#000000" transform="translate(0,0)"/>
<path d="" fill="#000000" transform="translate(0,0)"/>
<path d="" fill="#000000" transform="translate(0,0)"/>
<path d="M0 0 C0.66 0 1.32 0 2 0 C1.67 0.66 1.34 1.32 1 2 C0.67 1.34 0.34 0.68 0 0 Z " fill="#000000" transform="translate(658,547)"/>
<path d="" fill="#000000" transform="translate(0,0)"/>
<path d="M0 0 C0.66 0.66 1.32 1.32 2 2 C1.34 2 0.68 2 0 2 C0 1.34 0 0.68 0 0 Z " fill="#000000" transform="translate(657,544)"/>
<path d="" fill="#000000" transform="translate(0,0)"/>
<path d="M0 0 C0.33 0.66 0.66 1.32 1 2 C0.34 1.67 -0.32 1.34 -1 1 C-0.67 0.67 -0.34 0.34 0 0 Z " fill="#000000" transform="translate(461,522)"/>
<path d="" fill="#000000" transform="translate(0,0)"/>
<path d="M0 0 C0.33 0.66 0.66 1.32 1 2 C0.34 1.67 -0.32 1.34 -1 1 C-0.67 0.67 -0.34 0.34 0 0 Z " fill="#000000" transform="translate(486,491)"/>
<path d="M0 0 C0.33 0.66 0.66 1.32 1 2 C0.34 1.67 -0.32 1.34 -1 1 C-0.67 0.67 -0.34 0.34 0 0 Z " fill="#000000" transform="translate(755,469)"/>
<path d="" fill="#000000" transform="translate(0,0)"/>
<path d="M0 0 C3 1 3 1 3 1 Z " fill="#000000" transform="translate(430,410)"/>
<path d="M0 0 C3 1 3 1 3 1 Z " fill="#000000" transform="translate(417,410)"/>
<path d="M0 0 C0.66 0 1.32 0 2 0 C1.67 0.66 1.34 1.32 1 2 C0.67 1.34 0.34 0.68 0 0 Z " fill="#000000" transform="translate(288,404)"/>
<path d="" fill="#000000" transform="translate(0,0)"/>
<path d="" fill="#000000" transform="translate(0,0)"/>
<path d="" fill="#000000" transform="translate(0,0)"/>
<path d="M0 0 C0.66 0.66 1.32 1.32 2 2 C1.34 2 0.68 2 0 2 C0 1.34 0 0.68 0 0 Z " fill="#000000" transform="translate(288,330)"/>
<path d="M0 0 C2 1 2 1 2 1 Z " fill="#000000" transform="translate(320,650)"/>
<path d="" fill="#000000" transform="translate(0,0)"/>
<path d="" fill="#000000" transform="translate(0,0)"/>
<path d="" fill="#000000" transform="translate(0,0)"/>
<path d="" fill="#000000" transform="translate(0,0)"/>
<path d="" fill="#000000" transform="translate(0,0)"/>
<path d="" fill="#000000" transform="translate(0,0)"/>
<path d="" fill="#000000" transform="translate(0,0)"/>
<path d="" fill="#000000" transform="translate(0,0)"/>
<path d="" fill="#000000" transform="translate(0,0)"/>
<path d="" fill="#000000" transform="translate(0,0)"/>
<path d="M0 0 C2 1 2 1 2 1 Z " fill="#000000" transform="translate(484,495)"/>
<path d="M0 0 C2 1 2 1 2 1 Z " fill="#000000" transform="translate(600,493)"/>
<path d="" fill="#000000" transform="translate(0,0)"/>
<path d="" fill="#000000" transform="translate(0,0)"/>
<path d="" fill="#000000" transform="translate(0,0)"/>
<path d="" fill="#000000" transform="translate(0,0)"/>
<path d="" fill="#000000" transform="translate(0,0)"/>
<path d="" fill="#000000" transform="translate(0,0)"/>
<path d="" fill="#000000" transform="translate(0,0)"/>
<path d="" fill="#000000" transform="translate(0,0)"/>
<path d="M0 0 C2 1 2 1 2 1 Z " fill="#000000" transform="translate(462,419)"/>
<path d="M0 0 C2 1 2 1 2 1 Z " fill="#000000" transform="translate(441,416)"/>
<path d="M0 0 C2 1 2 1 2 1 Z " fill="#000000" transform="translate(441,414)"/>
<path d="M0 0 C2 1 2 1 2 1 Z " fill="#000000" transform="translate(292,414)"/>
<path d="" fill="#000000" transform="translate(0,0)"/>
<path d="M0 0 C2 1 2 1 2 1 Z " fill="#000000" transform="translate(411,408)"/>
<path d="M0 0 C2 1 2 1 2 1 Z " fill="#000000" transform="translate(416,406)"/>
<path d="M0 0 C2 1 2 1 2 1 Z " fill="#000000" transform="translate(401,405)"/>
<path d="" fill="#000000" transform="translate(0,0)"/>
<path d="" fill="#000000" transform="translate(0,0)"/>
<path d="" fill="#000000" transform="translate(0,0)"/>
<path d="" fill="#000000" transform="translate(0,0)"/>
<path d="" fill="#000000" transform="translate(0,0)"/>
<path d="" fill="#000000" transform="translate(0,0)"/>
<path d="" fill="#000000" transform="translate(0,0)"/>
<path d="M0 0 C2 1 2 1 2 1 Z " fill="#000000" transform="translate(440,377)"/>
<path d="" fill="#000000" transform="translate(0,0)"/>
<path d="" fill="#000000" transform="translate(0,0)"/>
<path d="" fill="#202020" transform="translate(0,0)"/>
<path d="M0 0 C2 1 2 1 2 1 Z " fill="#000000" transform="translate(545,323)"/>
<path d="" fill="#191919" transform="translate(0,0)"/>
<path d="M0 0 C2 1 2 1 2 1 Z " fill="#000000" transform="translate(370,307)"/>
<path d="" fill="#000000" transform="translate(0,0)"/>
<path d="" fill="#000000" transform="translate(0,0)"/>
<path d="M0 0 C2 1 2 1 2 1 Z " fill="#202020" transform="translate(658,277)"/>
<path d="" fill="#000000" transform="translate(0,0)"/>
<path d="M0 0 C2 1 2 1 2 1 Z " fill="#000000" transform="translate(304,262)"/>
<path d="M0 0 C2 1 2 1 2 1 Z " fill="#000000" transform="translate(734,248)"/>
<path d="M0 0 C2 1 2 1 2 1 Z " fill="#000000" transform="translate(716,241)"/>
<path d="M0 0 C2 1 2 1 2 1 Z " fill="#000000" transform="translate(710,240)"/>
<path d="M0 0 C2 1 2 1 2 1 Z " fill="#000000" transform="translate(335,240)"/>
<path d="M0 0 C2 1 2 1 2 1 Z " fill="#000000" transform="translate(437,239)"/>
<path d="M0 0 C2 1 2 1 2 1 Z " fill="#000000" transform="translate(588,233)"/>
<path d="M0 0 C2 1 2 1 2 1 Z " fill="#000000" transform="translate(583,233)"/>
<path d="M0 0 C2 1 2 1 2 1 Z " fill="#202020" transform="translate(575,233)"/>
<path d="M0 0 C2 1 2 1 2 1 Z " fill="#000000" transform="translate(572,233)"/>
<path d="M0 0 C2 1 2 1 2 1 Z " fill="#000000" transform="translate(564,233)"/>
<path d="M0 0 C2 1 2 1 2 1 Z " fill="#000000" transform="translate(556,233)"/>
<path d="M0 0 C2 1 2 1 2 1 Z " fill="#000000" transform="translate(551,233)"/>
<path d="M0 0 C2 1 2 1 2 1 Z " fill="#000000" transform="translate(548,233)"/>
<path d="M0 0 C2 1 2 1 2 1 Z " fill="#000000" transform="translate(532,233)"/>
<path d="M0 0 C2 1 2 1 2 1 Z " fill="#000000" transform="translate(231,233)"/>
<path d="M0 0 C2 1 2 1 2 1 Z " fill="#000000" transform="translate(223,233)"/>
<path d="M0 0 C2 1 2 1 2 1 Z " fill="#000000" transform="translate(183,233)"/>
<path d="M0 0 C2 1 2 1 2 1 Z " fill="#000000" transform="translate(162,233)"/>
<path d="" fill="#000000" transform="translate(0,0)"/>
<path d="" fill="#000000" transform="translate(0,0)"/>
<path d="" fill="#000000" transform="translate(0,0)"/>
<path d="" fill="#000000" transform="translate(0,0)"/>
<path d="" fill="#000000" transform="translate(0,0)"/>
<path d="" fill="#000000" transform="translate(0,0)"/>
<path d="" fill="#000000" transform="translate(0,0)"/>
<path d="" fill="#000000" transform="translate(0,0)"/>
<path d="" fill="#000000" transform="translate(0,0)"/>
<path d="" fill="#000000" transform="translate(0,0)"/>
<path d="" fill="#000000" transform="translate(0,0)"/>
<path d="" fill="#000000" transform="translate(0,0)"/>
<path d="" fill="#000000" transform="translate(0,0)"/>
<path d="" fill="#000000" transform="translate(0,0)"/>
<path d="" fill="#000000" transform="translate(0,0)"/>
<path d="" fill="#000000" transform="translate(0,0)"/>
<path d="" fill="#000000" transform="translate(0,0)"/>
<path d="" fill="#000000" transform="translate(0,0)"/>
<path d="" fill="#000000" transform="translate(0,0)"/>
<path d="" fill="#000000" transform="translate(0,0)"/>
<path d="" fill="#000000" transform="translate(0,0)"/>
<path d="" fill="#000000" transform="translate(0,0)"/>
<path d="" fill="#000000" transform="translate(0,0)"/>
<path d="" fill="#000000" transform="translate(0,0)"/>
<path d="" fill="#000000" transform="translate(0,0)"/>
<path d="" fill="#000000" transform="translate(0,0)"/>
<path d="" fill="#000000" transform="translate(0,0)"/>
<path d="" fill="#000000" transform="translate(0,0)"/>
<path d="" fill="#000000" transform="translate(0,0)"/>
<path d="" fill="#000000" transform="translate(0,0)"/>
<path d="" fill="#000000" transform="translate(0,0)"/>
<path d="" fill="#000000" transform="translate(0,0)"/>
<path d="" fill="#000000" transform="translate(0,0)"/>
<path d="" fill="#333333" transform="translate(0,0)"/>
<path d="" fill="#000000" transform="translate(0,0)"/>
<path d="" fill="#000000" transform="translate(0,0)"/>
<path d="" fill="#000000" transform="translate(0,0)"/>
<path d="" fill="#000000" transform="translate(0,0)"/>
<path d="" fill="#000000" transform="translate(0,0)"/>
<path d="" fill="#000000" transform="translate(0,0)"/>
<path d="" fill="#000000" transform="translate(0,0)"/>
<path d="" fill="#000000" transform="translate(0,0)"/>
<path d="" fill="#000000" transform="translate(0,0)"/>
<path d="" fill="#000000" transform="translate(0,0)"/>
<path d="" fill="#000000" transform="translate(0,0)"/>
<path d="" fill="#000000" transform="translate(0,0)"/>
<path d="" fill="#000000" transform="translate(0,0)"/>
<path d="" fill="#000000" transform="translate(0,0)"/>
<path d="" fill="#000000" transform="translate(0,0)"/>
<path d="" fill="#000000" transform="translate(0,0)"/>
<path d="" fill="#000000" transform="translate(0,0)"/>
<path d="" fill="#000000" transform="translate(0,0)"/>
<path d="" fill="#000000" transform="translate(0,0)"/>
<path d="" fill="#000000" transform="translate(0,0)"/>
<path d="" fill="#000000" transform="translate(0,0)"/>
<path d="" fill="#000000" transform="translate(0,0)"/>
<path d="" fill="#004000" transform="translate(0,0)"/>
<path d="" fill="#000000" transform="translate(0,0)"/>
<path d="" fill="#000000" transform="translate(0,0)"/>
<path d="" fill="#000000" transform="translate(0,0)"/>
<path d="" fill="#000000" transform="translate(0,0)"/>
<path d="" fill="#000000" transform="translate(0,0)"/>
<path d="" fill="#000000" transform="translate(0,0)"/>
<path d="" fill="#000000" transform="translate(0,0)"/>
<path d="" fill="#000000" transform="translate(0,0)"/>
<path d="" fill="#000000" transform="translate(0,0)"/>
<path d="" fill="#000000" transform="translate(0,0)"/>
<path d="" fill="#000000" transform="translate(0,0)"/>
<path d="" fill="#000000" transform="translate(0,0)"/>
<path d="" fill="#000000" transform="translate(0,0)"/>
<path d="" fill="#000000" transform="translate(0,0)"/>
<path d="" fill="#000000" transform="translate(0,0)"/>
<path d="" fill="#000000" transform="translate(0,0)"/>
<path d="" fill="#000000" transform="translate(0,0)"/>
<path d="" fill="#000000" transform="translate(0,0)"/>
<path d="" fill="#000000" transform="translate(0,0)"/>
<path d="" fill="#000000" transform="translate(0,0)"/>
<path d="" fill="#000000" transform="translate(0,0)"/>
<path d="" fill="#000000" transform="translate(0,0)"/>
<path d="" fill="#000000" transform="translate(0,0)"/>
<path d="" fill="#000000" transform="translate(0,0)"/>
<path d="" fill="#000000" transform="translate(0,0)"/>
<path d="" fill="#000000" transform="translate(0,0)"/>
<path d="" fill="#000000" transform="translate(0,0)"/>
<path d="" fill="#000000" transform="translate(0,0)"/>
<path d="" fill="#000000" transform="translate(0,0)"/>
<path d="" fill="#000000" transform="translate(0,0)"/>
<path d="" fill="#000000" transform="translate(0,0)"/>
<path d="" fill="#000000" transform="translate(0,0)"/>
<path d="" fill="#000000" transform="translate(0,0)"/>
<path d="" fill="#000000" transform="translate(0,0)"/>
<path d="" fill="#000000" transform="translate(0,0)"/>
<path d="" fill="#000000" transform="translate(0,0)"/>
<path d="" fill="#000000" transform="translate(0,0)"/>
<path d="" fill="#000000" transform="translate(0,0)"/>
<path d="" fill="#000000" transform="translate(0,0)"/>
<path d="" fill="#000000" transform="translate(0,0)"/>
<path d="" fill="#000000" transform="translate(0,0)"/>
<path d="" fill="#000000" transform="translate(0,0)"/>
<path d="" fill="#000000" transform="translate(0,0)"/>
<path d="" fill="#000000" transform="translate(0,0)"/>
<path d="" fill="#000000" transform="translate(0,0)"/>
<path d="" fill="#000000" transform="translate(0,0)"/>
<path d="" fill="#000000" transform="translate(0,0)"/>
<path d="" fill="#000000" transform="translate(0,0)"/>
<path d="" fill="#000000" transform="translate(0,0)"/>
<path d="" fill="#000000" transform="translate(0,0)"/>
<path d="" fill="#000000" transform="translate(0,0)"/>
<path d="" fill="#000000" transform="translate(0,0)"/>
<path d="" fill="#000000" transform="translate(0,0)"/>
<path d="" fill="#000000" transform="translate(0,0)"/>
<path d="" fill="#000000" transform="translate(0,0)"/>
<path d="" fill="#000000" transform="translate(0,0)"/>
<path d="" fill="#000000" transform="translate(0,0)"/>
<path d="" fill="#000000" transform="translate(0,0)"/>
<path d="" fill="#000000" transform="translate(0,0)"/>
<path d="" fill="#000000" transform="translate(0,0)"/>
<path d="" fill="#000000" transform="translate(0,0)"/>
<path d="" fill="#000000" transform="translate(0,0)"/>
<path d="" fill="#000000" transform="translate(0,0)"/>
<path d="" fill="#000000" transform="translate(0,0)"/>
<path d="" fill="#000000" transform="translate(0,0)"/>
<path d="" fill="#000000" transform="translate(0,0)"/>
<path d="" fill="#000000" transform="translate(0,0)"/>
<path d="" fill="#000000" transform="translate(0,0)"/>
<path d="" fill="#000000" transform="translate(0,0)"/>
<path d="" fill="#000000" transform="translate(0,0)"/>
<path d="" fill="#000000" transform="translate(0,0)"/>
<path d="" fill="#000000" transform="translate(0,0)"/>
<path d="" fill="#000000" transform="translate(0,0)"/>
<path d="" fill="#000000" transform="translate(0,0)"/>
<path d="" fill="#000000" transform="translate(0,0)"/>
<path d="" fill="#000000" transform="translate(0,0)"/>
<path d="" fill="#000000" transform="translate(0,0)"/>
<path d="" fill="#000000" transform="translate(0,0)"/>
<path d="" fill="#000000" transform="translate(0,0)"/>
<path d="" fill="#000000" transform="translate(0,0)"/>
<path d="" fill="#000000" transform="translate(0,0)"/>
<path d="" fill="#000000" transform="translate(0,0)"/>
<path d="" fill="#000000" transform="translate(0,0)"/>
<path d="" fill="#000000" transform="translate(0,0)"/>
<path d="" fill="#000000" transform="translate(0,0)"/>
<path d="" fill="#000000" transform="translate(0,0)"/>
<path d="" fill="#000000" transform="translate(0,0)"/>
<path d="" fill="#000000" transform="translate(0,0)"/>
<path d="" fill="#000000" transform="translate(0,0)"/>
<path d="" fill="#000000" transform="translate(0,0)"/>
<path d="" fill="#000000" transform="translate(0,0)"/>
<path d="" fill="#000000" transform="translate(0,0)"/>
<path d="" fill="#000000" transform="translate(0,0)"/>
<path d="" fill="#000000" transform="translate(0,0)"/>
<path d="" fill="#000000" transform="translate(0,0)"/>
<path d="" fill="#000000" transform="translate(0,0)"/>
<path d="" fill="#000000" transform="translate(0,0)"/>
<path d="" fill="#000000" transform="translate(0,0)"/>
<path d="" fill="#000000" transform="translate(0,0)"/>
<path d="" fill="#000000" transform="translate(0,0)"/>
<path d="" fill="#000000" transform="translate(0,0)"/>
<path d="" fill="#000000" transform="translate(0,0)"/>
<path d="" fill="#000000" transform="translate(0,0)"/>
<path d="" fill="#000000" transform="translate(0,0)"/>
<path d="" fill="#000000" transform="translate(0,0)"/>
<path d="" fill="#000000" transform="translate(0,0)"/>
<path d="" fill="#000000" transform="translate(0,0)"/>
<path d="" fill="#000000" transform="translate(0,0)"/>
<path d="" fill="#000000" transform="translate(0,0)"/>
<path d="" fill="#000000" transform="translate(0,0)"/>
<path d="" fill="#000000" transform="translate(0,0)"/>
<path d="" fill="#000000" transform="translate(0,0)"/>
<path d="" fill="#000000" transform="translate(0,0)"/>
<path d="" fill="#000000" transform="translate(0,0)"/>
<path d="" fill="#000000" transform="translate(0,0)"/>
<path d="" fill="#000000" transform="translate(0,0)"/>
<path d="" fill="#000000" transform="translate(0,0)"/>
<path d="" fill="#000000" transform="translate(0,0)"/>
<path d="" fill="#000000" transform="translate(0,0)"/>
<path d="" fill="#000000" transform="translate(0,0)"/>
<path d="" fill="#000000" transform="translate(0,0)"/>
<path d="" fill="#000000" transform="translate(0,0)"/>
<path d="" fill="#000000" transform="translate(0,0)"/>
<path d="" fill="#004000" transform="translate(0,0)"/>
<path d="" fill="#000000" transform="translate(0,0)"/>
<path d="" fill="#000000" transform="translate(0,0)"/>
<path d="" fill="#000000" transform="translate(0,0)"/>
<path d="" fill="#000000" transform="translate(0,0)"/>
<path d="" fill="#000000" transform="translate(0,0)"/>
<path d="" fill="#000000" transform="translate(0,0)"/>
<path d="" fill="#000000" transform="translate(0,0)"/>
<path d="" fill="#000000" transform="translate(0,0)"/>
<path d="" fill="#000000" transform="translate(0,0)"/>
<path d="" fill="#000000" transform="translate(0,0)"/>
<path d="" fill="#000000" transform="translate(0,0)"/>
<path d="" fill="#000000" transform="translate(0,0)"/>
<path d="" fill="#000000" transform="translate(0,0)"/>
<path d="" fill="#000000" transform="translate(0,0)"/>
<path d="" fill="#000000" transform="translate(0,0)"/>
<path d="" fill="#000000" transform="translate(0,0)"/>
<path d="" fill="#000000" transform="translate(0,0)"/>
<path d="" fill="#000000" transform="translate(0,0)"/>
<path d="" fill="#000000" transform="translate(0,0)"/>
<path d="" fill="#000000" transform="translate(0,0)"/>
<path d="" fill="#000000" transform="translate(0,0)"/>
<path d="" fill="#000000" transform="translate(0,0)"/>
<path d="" fill="#000000" transform="translate(0,0)"/>
<path d="" fill="#000000" transform="translate(0,0)"/>
<path d="" fill="#000000" transform="translate(0,0)"/>
<path d="" fill="#000000" transform="translate(0,0)"/>
<path d="" fill="#000000" transform="translate(0,0)"/>
<path d="" fill="#000000" transform="translate(0,0)"/>
<path d="" fill="#000000" transform="translate(0,0)"/>
<path d="" fill="#000000" transform="translate(0,0)"/>
<path d="" fill="#000000" transform="translate(0,0)"/>
<path d="" fill="#000000" transform="translate(0,0)"/>
<path d="" fill="#000000" transform="translate(0,0)"/>
<path d="" fill="#000000" transform="translate(0,0)"/>
<path d="" fill="#000000" transform="translate(0,0)"/>
<path d="" fill="#000000" transform="translate(0,0)"/>
<path d="" fill="#000000" transform="translate(0,0)"/>
<path d="" fill="#000000" transform="translate(0,0)"/>
<path d="" fill="#000000" transform="translate(0,0)"/>
<path d="" fill="#000000" transform="translate(0,0)"/>
<path d="" fill="#000000" transform="translate(0,0)"/>
<path d="" fill="#000000" transform="translate(0,0)"/>
<path d="" fill="#000000" transform="translate(0,0)"/>
<path d="" fill="#000000" transform="translate(0,0)"/>
<path d="" fill="#000000" transform="translate(0,0)"/>
<path d="" fill="#000000" transform="translate(0,0)"/>
<path d="" fill="#000000" transform="translate(0,0)"/>
<path d="" fill="#000000" transform="translate(0,0)"/>
<path d="" fill="#000000" transform="translate(0,0)"/>
<path d="" fill="#000000" transform="translate(0,0)"/>
<path d="" fill="#000000" transform="translate(0,0)"/>
<path d="" fill="#000000" transform="translate(0,0)"/>
<path d="" fill="#000000" transform="translate(0,0)"/>
<path d="" fill="#000000" transform="translate(0,0)"/>
<path d="" fill="#000000" transform="translate(0,0)"/>
<path d="" fill="#000000" transform="translate(0,0)"/>
<path d="" fill="#000000" transform="translate(0,0)"/>
<path d="" fill="#000000" transform="translate(0,0)"/>
<path d="" fill="#000000" transform="translate(0,0)"/>
<path d="" fill="#000000" transform="translate(0,0)"/>
<path d="" fill="#000000" transform="translate(0,0)"/>
<path d="" fill="#000000" transform="translate(0,0)"/>
<path d="" fill="#000000" transform="translate(0,0)"/>
<path d="" fill="#000000" transform="translate(0,0)"/>
<path d="" fill="#000000" transform="translate(0,0)"/>
<path d="" fill="#000000" transform="translate(0,0)"/>
<path d="" fill="#000000" transform="translate(0,0)"/>
<path d="" fill="#000000" transform="translate(0,0)"/>
<path d="" fill="#000000" transform="translate(0,0)"/>
<path d="" fill="#000000" transform="translate(0,0)"/>
<path d="" fill="#000000" transform="translate(0,0)"/>
<path d="" fill="#000000" transform="translate(0,0)"/>
<path d="" fill="#000000" transform="translate(0,0)"/>
<path d="" fill="#000000" transform="translate(0,0)"/>
<path d="" fill="#000000" transform="translate(0,0)"/>
<path d="" fill="#000000" transform="translate(0,0)"/>
<path d="" fill="#000000" transform="translate(0,0)"/>
<path d="" fill="#000000" transform="translate(0,0)"/>
<path d="" fill="#000000" transform="translate(0,0)"/>
<path d="" fill="#000000" transform="translate(0,0)"/>
<path d="" fill="#000000" transform="translate(0,0)"/>
<path d="" fill="#000000" transform="translate(0,0)"/>
<path d="" fill="#000000" transform="translate(0,0)"/>
<path d="" fill="#000000" transform="translate(0,0)"/>
<path d="" fill="#000000" transform="translate(0,0)"/>
<path d="" fill="#000000" transform="translate(0,0)"/>
<path d="" fill="#000000" transform="translate(0,0)"/>
<path d="" fill="#000000" transform="translate(0,0)"/>
<path d="" fill="#000000" transform="translate(0,0)"/>
<path d="" fill="#000000" transform="translate(0,0)"/>
<path d="" fill="#000000" transform="translate(0,0)"/>
<path d="" fill="#000000" transform="translate(0,0)"/>
<path d="" fill="#000000" transform="translate(0,0)"/>
<path d="" fill="#000000" transform="translate(0,0)"/>
<path d="" fill="#000000" transform="translate(0,0)"/>
<path d="" fill="#000000" transform="translate(0,0)"/>
<path d="" fill="#000000" transform="translate(0,0)"/>
<path d="" fill="#000000" transform="translate(0,0)"/>
<path d="" fill="#000000" transform="translate(0,0)"/>
<path d="" fill="#000000" transform="translate(0,0)"/>
<path d="" fill="#000000" transform="translate(0,0)"/>
<path d="" fill="#000000" transform="translate(0,0)"/>
<path d="" fill="#000000" transform="translate(0,0)"/>
<path d="" fill="#000000" transform="translate(0,0)"/>
<path d="" fill="#000000" transform="translate(0,0)"/>
<path d="" fill="#000000" transform="translate(0,0)"/>
<path d="" fill="#000000" transform="translate(0,0)"/>
<path d="" fill="#000000" transform="translate(0,0)"/>
<path d="" fill="#000000" transform="translate(0,0)"/>
<path d="" fill="#000000" transform="translate(0,0)"/>
<path d="" fill="#000000" transform="translate(0,0)"/>
<path d="" fill="#000000" transform="translate(0,0)"/>
<path d="" fill="#000000" transform="translate(0,0)"/>
<path d="" fill="#000000" transform="translate(0,0)"/>
<path d="" fill="#000000" transform="translate(0,0)"/>
<path d="" fill="#000000" transform="translate(0,0)"/>
<path d="" fill="#000000" transform="translate(0,0)"/>
<path d="" fill="#000000" transform="translate(0,0)"/>
<path d="" fill="#000000" transform="translate(0,0)"/>
<path d="" fill="#000000" transform="translate(0,0)"/>
<path d="" fill="#000000" transform="translate(0,0)"/>
<path d="" fill="#000000" transform="translate(0,0)"/>
<path d="" fill="#000000" transform="translate(0,0)"/>
<path d="" fill="#000000" transform="translate(0,0)"/>
<path d="" fill="#000000" transform="translate(0,0)"/>
<path d="" fill="#000000" transform="translate(0,0)"/>
<path d="" fill="#000000" transform="translate(0,0)"/>
<path d="" fill="#000000" transform="translate(0,0)"/>
<path d="" fill="#000000" transform="translate(0,0)"/>
<path d="" fill="#000000" transform="translate(0,0)"/>
<path d="" fill="#000000" transform="translate(0,0)"/>
<path d="" fill="#000000" transform="translate(0,0)"/>
<path d="" fill="#000000" transform="translate(0,0)"/>
<path d="" fill="#000000" transform="translate(0,0)"/>
<path d="" fill="#000000" transform="translate(0,0)"/>
<path d="" fill="#000000" transform="translate(0,0)"/>
<path d="" fill="#000000" transform="translate(0,0)"/>
<path d="" fill="#000000" transform="translate(0,0)"/>
<path d="" fill="#000000" transform="translate(0,0)"/>
<path d="" fill="#000000" transform="translate(0,0)"/>
<path d="" fill="#000000" transform="translate(0,0)"/>
<path d="" fill="#000000" transform="translate(0,0)"/>
<path d="" fill="#000000" transform="translate(0,0)"/>
<path d="" fill="#000000" transform="translate(0,0)"/>
<path d="" fill="#000000" transform="translate(0,0)"/>
<path d="" fill="#000000" transform="translate(0,0)"/>
<path d="" fill="#000000" transform="translate(0,0)"/>
<path d="" fill="#000000" transform="translate(0,0)"/>
<path d="" fill="#000000" transform="translate(0,0)"/>
<path d="" fill="#000000" transform="translate(0,0)"/>
<path d="" fill="#000000" transform="translate(0,0)"/>
<path d="" fill="#000000" transform="translate(0,0)"/>
<path d="" fill="#000000" transform="translate(0,0)"/>
<path d="" fill="#000000" transform="translate(0,0)"/>
<path d="" fill="#000000" transform="translate(0,0)"/>
<path d="" fill="#000000" transform="translate(0,0)"/>
<path d="" fill="#000000" transform="translate(0,0)"/>
<path d="" fill="#000000" transform="translate(0,0)"/>
<path d="" fill="#000000" transform="translate(0,0)"/>
<path d="" fill="#000000" transform="translate(0,0)"/>
<path d="" fill="#000000" transform="translate(0,0)"/>
<path d="" fill="#000000" transform="translate(0,0)"/>
<path d="" fill="#000000" transform="translate(0,0)"/>
<path d="" fill="#000000" transform="translate(0,0)"/>
<path d="" fill="#000000" transform="translate(0,0)"/>
<path d="" fill="#000000" transform="translate(0,0)"/>
<path d="" fill="#000000" transform="translate(0,0)"/>
<path d="" fill="#000000" transform="translate(0,0)"/>
<path d="" fill="#000000" transform="translate(0,0)"/>
<path d="" fill="#000000" transform="translate(0,0)"/>
<path d="" fill="#000000" transform="translate(0,0)"/>
<path d="" fill="#000000" transform="translate(0,0)"/>
<path d="" fill="#000000" transform="translate(0,0)"/>
<path d="" fill="#000000" transform="translate(0,0)"/>
<path d="" fill="#000000" transform="translate(0,0)"/>
<path d="" fill="#000000" transform="translate(0,0)"/>
<path d="" fill="#000000" transform="translate(0,0)"/>
<path d="" fill="#000000" transform="translate(0,0)"/>
<path d="" fill="#004040" transform="translate(0,0)"/>
<path d="" fill="#000000" transform="translate(0,0)"/>
<path d="" fill="#000000" transform="translate(0,0)"/>
<path d="" fill="#000000" transform="translate(0,0)"/>
<path d="" fill="#000000" transform="translate(0,0)"/>
<path d="" fill="#000000" transform="translate(0,0)"/>
<path d="" fill="#000000" transform="translate(0,0)"/>
<path d="" fill="#000000" transform="translate(0,0)"/>
<path d="" fill="#000000" transform="translate(0,0)"/>
<path d="" fill="#000000" transform="translate(0,0)"/>
<path d="" fill="#000000" transform="translate(0,0)"/>
<path d="" fill="#000000" transform="translate(0,0)"/>
<path d="" fill="#000000" transform="translate(0,0)"/>
<path d="" fill="#000000" transform="translate(0,0)"/>
<path d="" fill="#000000" transform="translate(0,0)"/>
<path d="" fill="#000000" transform="translate(0,0)"/>
<path d="" fill="#000000" transform="translate(0,0)"/>
<path d="" fill="#000000" transform="translate(0,0)"/>
<path d="" fill="#000000" transform="translate(0,0)"/>
<path d="" fill="#000000" transform="translate(0,0)"/>
<path d="" fill="#000000" transform="translate(0,0)"/>
<path d="" fill="#000000" transform="translate(0,0)"/>
<path d="" fill="#000000" transform="translate(0,0)"/>
<path d="" fill="#000000" transform="translate(0,0)"/>
<path d="" fill="#000000" transform="translate(0,0)"/>
<path d="" fill="#000000" transform="translate(0,0)"/>
<path d="" fill="#000000" transform="translate(0,0)"/>
<path d="" fill="#000000" transform="translate(0,0)"/>
<path d="" fill="#000000" transform="translate(0,0)"/>
<path d="" fill="#000000" transform="translate(0,0)"/>
<path d="" fill="#000000" transform="translate(0,0)"/>
<path d="" fill="#550000" transform="translate(0,0)"/>
<path d="" fill="#000000" transform="translate(0,0)"/>
<path d="" fill="#000000" transform="translate(0,0)"/>
<path d="" fill="#333333" transform="translate(0,0)"/>
<path d="" fill="#000000" transform="translate(0,0)"/>
<path d="" fill="#000000" transform="translate(0,0)"/>
<path d="" fill="#000000" transform="translate(0,0)"/>
<path d="" fill="#000000" transform="translate(0,0)"/>
<path d="" fill="#000000" transform="translate(0,0)"/>
<path d="" fill="#000000" transform="translate(0,0)"/>
<path d="" fill="#000000" transform="translate(0,0)"/>
<path d="" fill="#000000" transform="translate(0,0)"/>
<path d="" fill="#000000" transform="translate(0,0)"/>
<path d="" fill="#000000" transform="translate(0,0)"/>
<path d="" fill="#000000" transform="translate(0,0)"/>
<path d="" fill="#000000" transform="translate(0,0)"/>
<path d="" fill="#000000" transform="translate(0,0)"/>
<path d="" fill="#000000" transform="translate(0,0)"/>
<path d="" fill="#000000" transform="translate(0,0)"/>
<path d="" fill="#000000" transform="translate(0,0)"/>
<path d="" fill="#000000" transform="translate(0,0)"/>
<path d="" fill="#000000" transform="translate(0,0)"/>
<path d="" fill="#000000" transform="translate(0,0)"/>
<path d="" fill="#000000" transform="translate(0,0)"/>
<path d="" fill="#000000" transform="translate(0,0)"/>
<path d="" fill="#000000" transform="translate(0,0)"/>
<path d="" fill="#000000" transform="translate(0,0)"/>
<path d="" fill="#000000" transform="translate(0,0)"/>
<path d="" fill="#000000" transform="translate(0,0)"/>
<path d="" fill="#000000" transform="translate(0,0)"/>
<path d="" fill="#000000" transform="translate(0,0)"/>
<path d="" fill="#000000" transform="translate(0,0)"/>
<path d="" fill="#000000" transform="translate(0,0)"/>
<path d="" fill="#000000" transform="translate(0,0)"/>
<path d="" fill="#000000" transform="translate(0,0)"/>
<path d="" fill="#000000" transform="translate(0,0)"/>
<path d="" fill="#000000" transform="translate(0,0)"/>
<path d="" fill="#000000" transform="translate(0,0)"/>
<path d="" fill="#555555" transform="translate(0,0)"/>
<path d="" fill="#000000" transform="translate(0,0)"/>
<path d="" fill="#000000" transform="translate(0,0)"/>
<path d="" fill="#000000" transform="translate(0,0)"/>
<path d="" fill="#000000" transform="translate(0,0)"/>
<path d="" fill="#000000" transform="translate(0,0)"/>
<path d="" fill="#000000" transform="translate(0,0)"/>
<path d="" fill="#000000" transform="translate(0,0)"/>
<path d="" fill="#000000" transform="translate(0,0)"/>
<path d="" fill="#000000" transform="translate(0,0)"/>
<path d="" fill="#000000" transform="translate(0,0)"/>
<path d="" fill="#000000" transform="translate(0,0)"/>
<path d="" fill="#000000" transform="translate(0,0)"/>
<path d="" fill="#000000" transform="translate(0,0)"/>
<path d="" fill="#000000" transform="translate(0,0)"/>
<path d="" fill="#000000" transform="translate(0,0)"/>
<path d="" fill="#000000" transform="translate(0,0)"/>
<path d="" fill="#555555" transform="translate(0,0)"/>
<path d="" fill="#000000" transform="translate(0,0)"/>
<path d="" fill="#000000" transform="translate(0,0)"/>
<path d="" fill="#000000" transform="translate(0,0)"/>
</svg>
